<mxfile host="Electron" agent="Mozilla/5.0 (Windows NT 10.0; Win64; x64) AppleWebKit/537.36 (KHTML, like Gecko) draw.io/26.1.1 Chrome/132.0.6834.210 Electron/34.3.3 Safari/537.36" version="26.1.1">
  <diagram name="Page-1" id="v85L4FLC7zyBde-1lvRM">
    <mxGraphModel dx="2314" dy="1196" grid="1" gridSize="10" guides="1" tooltips="1" connect="1" arrows="1" fold="1" page="1" pageScale="1" pageWidth="850" pageHeight="1100" math="0" shadow="0">
      <root>
        <mxCell id="0" />
        <mxCell id="1" parent="0" />
        <mxCell id="gWVUyst5q5U3T6r_8HzK-1" value="Start" style="ellipse;whiteSpace=wrap;html=1;" parent="1" vertex="1">
          <mxGeometry x="314" width="165" height="100" as="geometry" />
        </mxCell>
        <mxCell id="WKOSNwNUEdi9BCog6ddG-1" style="edgeStyle=orthogonalEdgeStyle;rounded=0;orthogonalLoop=1;jettySize=auto;html=1;exitX=0.5;exitY=1;exitDx=0;exitDy=0;" edge="1" parent="1" source="gWVUyst5q5U3T6r_8HzK-4">
          <mxGeometry relative="1" as="geometry">
            <mxPoint x="409" y="260" as="targetPoint" />
          </mxGeometry>
        </mxCell>
        <mxCell id="gWVUyst5q5U3T6r_8HzK-4" value="Input CustomerLastName" style="shape=parallelogram;perimeter=parallelogramPerimeter;whiteSpace=wrap;html=1;fixedSize=1;" parent="1" vertex="1">
          <mxGeometry x="279" y="130" width="250" height="100" as="geometry" />
        </mxCell>
        <mxCell id="gWVUyst5q5U3T6r_8HzK-49" style="edgeStyle=orthogonalEdgeStyle;rounded=0;orthogonalLoop=1;jettySize=auto;html=1;exitX=0.5;exitY=1;exitDx=0;exitDy=0;" parent="1" source="gWVUyst5q5U3T6r_8HzK-6" edge="1">
          <mxGeometry relative="1" as="geometry">
            <mxPoint x="208" y="740" as="targetPoint" />
          </mxGeometry>
        </mxCell>
        <mxCell id="gWVUyst5q5U3T6r_8HzK-6" value="Input numberOfOtherRooms" style="shape=parallelogram;perimeter=parallelogramPerimeter;whiteSpace=wrap;html=1;fixedSize=1;" parent="1" vertex="1">
          <mxGeometry x="83.22" y="610" width="250" height="100" as="geometry" />
        </mxCell>
        <mxCell id="WKOSNwNUEdi9BCog6ddG-3" style="edgeStyle=orthogonalEdgeStyle;rounded=0;orthogonalLoop=1;jettySize=auto;html=1;exitX=1;exitY=0.5;exitDx=0;exitDy=0;" edge="1" parent="1" source="gWVUyst5q5U3T6r_8HzK-7">
          <mxGeometry relative="1" as="geometry">
            <mxPoint x="739" y="470" as="targetPoint" />
          </mxGeometry>
        </mxCell>
        <mxCell id="WKOSNwNUEdi9BCog6ddG-4" style="edgeStyle=orthogonalEdgeStyle;rounded=0;orthogonalLoop=1;jettySize=auto;html=1;exitX=0;exitY=0.5;exitDx=0;exitDy=0;entryX=0.044;entryY=0.43;entryDx=0;entryDy=0;entryPerimeter=0;" edge="1" parent="1" source="gWVUyst5q5U3T6r_8HzK-7" target="gWVUyst5q5U3T6r_8HzK-45">
          <mxGeometry relative="1" as="geometry">
            <mxPoint x="89" y="510" as="targetPoint" />
            <Array as="points">
              <mxPoint x="90" y="370" />
              <mxPoint x="90" y="513" />
            </Array>
          </mxGeometry>
        </mxCell>
        <mxCell id="gWVUyst5q5U3T6r_8HzK-7" value="If the customer&#39;s last name is not &quot;ZZZZ&quot;, continue to the next step&lt;div&gt;&lt;br&gt;&lt;/div&gt;&lt;div&gt;If the customer&#39;s name is &quot;ZZZZ&quot;, move to the End-of-Job Module&lt;/div&gt;" style="rhombus;whiteSpace=wrap;html=1;" parent="1" vertex="1">
          <mxGeometry x="119" y="270" width="600" height="200" as="geometry" />
        </mxCell>
        <mxCell id="gWVUyst5q5U3T6r_8HzK-50" style="edgeStyle=orthogonalEdgeStyle;rounded=0;orthogonalLoop=1;jettySize=auto;html=1;exitX=0.5;exitY=1;exitDx=0;exitDy=0;" parent="1" source="gWVUyst5q5U3T6r_8HzK-23" edge="1">
          <mxGeometry relative="1" as="geometry">
            <mxPoint x="208" y="900" as="targetPoint" />
          </mxGeometry>
        </mxCell>
        <mxCell id="gWVUyst5q5U3T6r_8HzK-23" value="Service Charge = 40 + (numberOfBathrooms x 15) + (numberOfOtherRooms x 10)" style="rounded=0;whiteSpace=wrap;html=1;" parent="1" vertex="1">
          <mxGeometry x="52.44" y="750" width="311.56" height="110" as="geometry" />
        </mxCell>
        <mxCell id="gWVUyst5q5U3T6r_8HzK-51" style="edgeStyle=orthogonalEdgeStyle;rounded=0;orthogonalLoop=1;jettySize=auto;html=1;exitX=0.5;exitY=1;exitDx=0;exitDy=0;" parent="1" source="gWVUyst5q5U3T6r_8HzK-25" edge="1">
          <mxGeometry relative="1" as="geometry">
            <mxPoint x="213" y="1040" as="targetPoint" />
          </mxGeometry>
        </mxCell>
        <mxCell id="gWVUyst5q5U3T6r_8HzK-25" value="Display serviceCharge" style="shape=parallelogram;perimeter=parallelogramPerimeter;whiteSpace=wrap;html=1;fixedSize=1;" parent="1" vertex="1">
          <mxGeometry x="52.44" y="910" width="321.56" height="100" as="geometry" />
        </mxCell>
        <mxCell id="gWVUyst5q5U3T6r_8HzK-54" style="edgeStyle=orthogonalEdgeStyle;rounded=0;orthogonalLoop=1;jettySize=auto;html=1;exitX=0.5;exitY=1;exitDx=0;exitDy=0;" parent="1" source="gWVUyst5q5U3T6r_8HzK-27" edge="1">
          <mxGeometry relative="1" as="geometry">
            <mxPoint x="645" y="610" as="targetPoint" />
          </mxGeometry>
        </mxCell>
        <mxCell id="gWVUyst5q5U3T6r_8HzK-27" value="Display programIsComplete" style="shape=parallelogram;perimeter=parallelogramPerimeter;whiteSpace=wrap;html=1;fixedSize=1;" parent="1" vertex="1">
          <mxGeometry x="494.64" y="480" width="300" height="100" as="geometry" />
        </mxCell>
        <mxCell id="gWVUyst5q5U3T6r_8HzK-52" style="edgeStyle=orthogonalEdgeStyle;rounded=0;orthogonalLoop=1;jettySize=auto;html=1;" parent="1" edge="1" target="gWVUyst5q5U3T6r_8HzK-4">
          <mxGeometry relative="1" as="geometry">
            <mxPoint x="109" y="170" as="targetPoint" />
            <mxPoint x="49" y="1130" as="sourcePoint" />
            <Array as="points">
              <mxPoint x="49" y="1131" />
              <mxPoint x="10" y="1131" />
              <mxPoint x="10" y="180" />
            </Array>
          </mxGeometry>
        </mxCell>
        <mxCell id="gWVUyst5q5U3T6r_8HzK-29" value="Redirect user to next customer&#39;s name" style="rounded=0;whiteSpace=wrap;html=1;" parent="1" vertex="1">
          <mxGeometry x="52.44" y="1060" width="311.56" height="100" as="geometry" />
        </mxCell>
        <mxCell id="gWVUyst5q5U3T6r_8HzK-41" style="edgeStyle=orthogonalEdgeStyle;rounded=0;orthogonalLoop=1;jettySize=auto;html=1;exitX=0.5;exitY=1;exitDx=0;exitDy=0;" parent="1" edge="1">
          <mxGeometry relative="1" as="geometry">
            <mxPoint x="397" y="120" as="targetPoint" />
            <mxPoint x="397" y="100" as="sourcePoint" />
          </mxGeometry>
        </mxCell>
        <mxCell id="gWVUyst5q5U3T6r_8HzK-47" style="edgeStyle=orthogonalEdgeStyle;rounded=0;orthogonalLoop=1;jettySize=auto;html=1;exitX=0.5;exitY=1;exitDx=0;exitDy=0;" parent="1" source="gWVUyst5q5U3T6r_8HzK-45" edge="1">
          <mxGeometry relative="1" as="geometry">
            <mxPoint x="220" y="600" as="targetPoint" />
          </mxGeometry>
        </mxCell>
        <mxCell id="gWVUyst5q5U3T6r_8HzK-45" value="Input numberOfBathrooms" style="shape=parallelogram;perimeter=parallelogramPerimeter;whiteSpace=wrap;html=1;fixedSize=1;" parent="1" vertex="1">
          <mxGeometry x="89.62" y="470" width="260" height="100" as="geometry" />
        </mxCell>
        <mxCell id="gWVUyst5q5U3T6r_8HzK-53" value="Stop" style="ellipse;whiteSpace=wrap;html=1;" parent="1" vertex="1">
          <mxGeometry x="564.64" y="615" width="160" height="90" as="geometry" />
        </mxCell>
      </root>
    </mxGraphModel>
  </diagram>
</mxfile>
